<svg width="322" height="116" viewBox="0 0 322 116" fill="none" xmlns="http://www.w3.org/2000/svg">
<path d="M10.6797 96.8008V70.5608L60.2797 1.12078H94.1997V69.6008H106.68V96.8008H94.1997V116.001H62.5197V96.8008H10.6797ZM64.9197 37.1208L42.3597 69.6008H64.9197V37.1208Z" fill="#E8EBF2"/>
<path d="M119.076 58.0808C119.076 75.6808 122.809 89.6541 130.276 100.001C137.849 110.347 149.583 115.521 165.476 115.521C181.369 115.521 193.103 110.347 200.676 100.001C208.249 89.6541 212.036 75.6808 212.036 58.0808C212.036 40.5875 208.249 26.6674 200.676 16.3208C193.103 5.97411 181.369 0.800781 165.476 0.800781C149.583 0.800781 137.849 5.97411 130.276 16.3208C122.809 26.5608 119.076 40.4808 119.076 58.0808ZM180.996 58.0808C180.996 66.9341 179.929 73.7608 177.796 78.5608C175.769 83.3608 171.663 85.7608 165.476 85.7608C159.289 85.7608 155.129 83.3608 152.996 78.5608C150.969 73.7608 149.956 66.9341 149.956 58.0808C149.956 49.3341 150.969 42.5608 152.996 37.7608C155.129 32.9608 159.289 30.5608 165.476 30.5608C171.663 30.5608 175.769 32.9608 177.796 37.7608C179.929 42.5608 180.996 49.3341 180.996 58.0808Z" fill="#E8EBF2"/>
<path d="M225.367 96.8008V70.5608L274.967 1.12078H308.887V69.6008H321.367V96.8008H308.887V116.001H277.207V96.8008H225.367ZM279.607 37.1208L257.047 69.6008H279.607V37.1208Z" fill="#E8EBF2"/>
<path d="M0.679688 96.8008V70.5608L50.2797 1.12078H84.1997V69.6008H96.6797V96.8008H84.1997V116.001H52.5197V96.8008H0.679688ZM54.9197 37.1208L32.3597 69.6008H54.9197V37.1208Z" fill="#2447F9"/>
<path d="M109.076 58.0808C109.076 75.6808 112.809 89.6541 120.276 100.001C127.849 110.347 139.583 115.521 155.476 115.521C171.369 115.521 183.103 110.347 190.676 100.001C198.249 89.6541 202.036 75.6808 202.036 58.0808C202.036 40.5875 198.249 26.6674 190.676 16.3208C183.103 5.97411 171.369 0.800781 155.476 0.800781C139.583 0.800781 127.849 5.97411 120.276 16.3208C112.809 26.5608 109.076 40.4808 109.076 58.0808ZM170.996 58.0808C170.996 66.9341 169.929 73.7608 167.796 78.5608C165.769 83.3608 161.663 85.7608 155.476 85.7608C149.289 85.7608 145.129 83.3608 142.996 78.5608C140.969 73.7608 139.956 66.9341 139.956 58.0808C139.956 49.3341 140.969 42.5608 142.996 37.7608C145.129 32.9608 149.289 30.5608 155.476 30.5608C161.663 30.5608 165.769 32.9608 167.796 37.7608C169.929 42.5608 170.996 49.3341 170.996 58.0808Z" fill="#2447F9"/>
<path d="M215.367 96.8008V70.5608L264.967 1.12078H298.887V69.6008H311.367V96.8008H298.887V116.001H267.207V96.8008H215.367ZM269.607 37.1208L247.047 69.6008H269.607V37.1208Z" fill="#2447F9"/>
</svg>
