<svg width="395" height="450" viewBox="0 0 395 450" fill="none" xmlns="http://www.w3.org/2000/svg">
<path d="M296.394 79.4824C299.866 81.4342 298.192 86.6391 296.92 88.9975H289.989C290.208 88.3062 291.869 86.2161 292.711 83.386C293.763 79.8483 283.766 74.4808 288.633 72.1631C293.5 69.8453 289.159 66.7956 285.476 62.16C281.793 57.5244 290.08 48.6193 293.5 53.0109C296.92 57.4025 292.974 57.5244 292.711 62.16C292.448 66.7955 299.551 67.0395 298.63 72.1631C297.709 77.2866 292.053 77.0426 296.394 79.4824Z" fill="#EFF2FA"/>
<path d="M294.779 80.5661C297.352 82.7165 295.454 87.0826 294.183 88.9968H292.516C293.349 87.775 294.97 84.8181 294.779 82.7654C294.541 80.1995 291.801 79.0999 291.563 76.6562C291.324 74.2125 296.447 72.6241 290.609 65.904C285.94 60.5279 288.823 57.2289 290.848 56.2515C289.895 56.8217 288.417 58.964 290.133 62.9716C292.277 67.9811 295.732 70.1804 294.422 73.3572C293.111 76.534 291.563 77.878 294.779 80.5661Z" fill="#E8EBF2"/>
<path d="M289.708 79.2761C294.479 81.8036 292.11 86.81 290.329 88.9973H286.726C286.726 87.0529 285.856 87.1747 284.116 85.1089C282.377 83.0432 286.104 82.6786 281.383 79.2761C276.661 75.8735 278.401 73.2004 278.276 71.2562C278.152 69.3119 274.673 70.527 272.561 65.5448C270.448 60.5627 277.282 60.3197 280.016 64.4512C282.75 68.5827 282.998 68.0967 286.726 70.8915C290.453 73.6864 283.744 76.1167 289.708 79.2761Z" fill="#3D58FF"/>
<path d="M289.708 79.2761C294.479 81.8036 292.11 86.81 290.329 88.9973H286.726C286.726 87.0529 285.856 87.1747 284.116 85.1089C282.377 83.0432 286.104 82.6786 281.383 79.2761C276.661 75.8735 278.401 73.2004 278.276 71.2562C278.152 69.3119 274.673 70.527 272.561 65.5448C270.448 60.5627 277.282 60.3197 280.016 64.4512C282.75 68.5827 282.998 68.0967 286.726 70.8915C290.453 73.6864 283.744 76.1167 289.708 79.2761Z" fill="#EFF2FA"/>
<path fill-rule="evenodd" clip-rule="evenodd" d="M288.93 89.1874C289.688 86.4937 290.416 82.3009 288.663 81.8626C286.212 81.2499 283.761 78.186 284.619 75.3673C285.477 72.5485 282.413 69.8523 279.962 69.2396C277.66 68.664 273.844 63.6563 273.693 61.831C275.419 60.9779 278.599 61.8731 280.255 64.4315C282.335 67.6459 282.956 68.0889 284.819 69.4174C285.371 69.8111 286.032 70.2825 286.873 70.9268C288.526 72.1941 288.098 73.3871 287.661 74.606C287.125 76.0982 286.576 77.6293 289.814 79.3831C294.52 81.9322 292.183 86.9814 290.427 89.1874H288.93Z" fill="#E8EBF2"/>
<path d="M296.761 81.8968C294.064 83.2828 295.403 86.0283 296.41 87.2278H298.446C298.446 86.1615 298.938 86.2283 299.921 85.0954C300.904 83.9626 298.797 83.7627 301.466 81.8968C304.135 80.0309 303.152 78.565 303.222 77.4988C303.292 76.4326 305.259 77.0989 306.453 74.3668C307.646 71.6346 303.784 71.5013 302.239 73.767C300.694 76.0327 300.553 75.7661 298.446 77.2988C296.339 78.8315 300.132 80.1642 296.761 81.8968Z" fill="#3D58FF"/>
<path d="M296.761 81.8968C294.064 83.2828 295.403 86.0283 296.41 87.2278H298.446C298.446 86.1615 298.938 86.2283 299.921 85.0954C300.904 83.9626 298.797 83.7627 301.466 81.8968C304.135 80.0309 303.152 78.565 303.222 77.4988C303.292 76.4326 305.259 77.0989 306.453 74.3668C307.646 71.6346 303.784 71.5013 302.239 73.767C300.694 76.0327 300.553 75.7661 298.446 77.2988C296.339 78.8315 300.132 80.1642 296.761 81.8968Z" fill="#EFF2FA"/>
<path fill-rule="evenodd" clip-rule="evenodd" d="M297.192 87.4623C296.773 85.9749 296.371 83.6583 297.339 83.4162C298.692 83.0778 300.046 81.3859 299.572 79.8294C299.098 78.2728 300.79 76.784 302.144 76.4456C303.415 76.1279 305.52 73.3648 305.605 72.3558C304.652 71.8846 302.896 72.3789 301.982 73.7917C300.833 75.5667 300.49 75.8114 299.461 76.545C299.156 76.7624 298.791 77.0228 298.327 77.3786C297.414 78.0784 297.651 78.7372 297.892 79.4102C298.188 80.2343 298.491 81.0797 296.703 82.0482C294.104 83.4559 295.395 86.2441 296.365 87.4623H297.192Z" fill="#E8EBF2"/>
<path d="M298.712 96.078C296.942 91.83 299.008 87.2275 300.483 85.4575H282.34C284.405 87.375 287.384 92.538 284.552 97.848C281.012 104.486 281.012 121.743 292.96 119.973C304.907 118.203 300.925 101.388 298.712 96.078Z" fill="#E8EBF2"/>
<rect x="351.812" y="48.2871" width="13.2751" height="73.4557" fill="#E8EBF2"/>
<rect x="371.283" y="50.0571" width="13.2751" height="73.4557" fill="#E8EBF2"/>
<rect x="340.213" y="49.1719" width="13.2751" height="73.4557" transform="rotate(29.5173 340.213 49.1719)" fill="#E8EBF2"/>
<rect x="271.277" y="119.973" width="123.016" height="13.2751" fill="#EFF2FA"/>
<ellipse cx="313.054" cy="407.459" rx="74.8726" ry="19.532" fill="#F1F3FF"/>
<path d="M178.745 387.825V282.128L191.048 285.358V387.825C199.979 387.825 216.638 389.352 211.826 395.459C205.811 403.092 153.587 401.173 155.78 394.578C158.514 386.357 172.275 388.119 178.745 387.825Z" fill="#EFF2FA"/>
<path d="M117.192 128.014C138.243 92.4226 181.485 90.0354 200.474 93.2907C244.964 112.28 314.14 222.176 284.57 260.155C255.001 298.134 143.506 303.017 106.612 269.65C69.7183 236.283 90.8781 172.504 117.192 128.014Z" fill="#FFD58B"/>
<path d="M128.686 207.832C116.974 194.245 153.538 144.036 170.438 119.362H179.926L244.445 182.893L283.485 245.506C253.572 263.842 176.077 290.065 170.438 259.038C163.389 220.253 143.326 224.816 128.686 207.832Z" fill="#D34655"/>
<path d="M128.686 207.832C116.974 194.245 153.538 144.036 170.438 119.362H179.926L244.445 182.893L283.485 245.506C253.572 263.842 176.077 290.065 170.438 259.038C163.389 220.253 143.326 224.816 128.686 207.832Z" fill="url(#paint0_linear)"/>
<path d="M214.492 25.1519C227.73 26.888 228.508 33.471 227.242 36.5455C218.29 43.6892 200.277 63.0766 199.843 83.4766C199.3 108.977 203.912 109.791 196.045 127.695C188.178 145.599 183.295 188.732 175.428 188.19C169.134 187.756 161.593 191.626 158.609 193.615C155.787 192.313 153.997 184.211 153.454 180.323C151.067 184.88 153.364 191.626 154.811 194.429C149.602 194.429 147.758 196.599 147.486 197.684C132.024 165.131 150.795 134.786 161.05 123.354C177.598 104.908 178.412 81.5776 177.598 60.4179C176.784 39.2583 197.944 22.9816 214.492 25.1519Z" fill="#DE5F38"/>
<mask id="mask0" mask-type="alpha" maskUnits="userSpaceOnUse" x="141" y="24" width="87" height="174">
<path d="M214.492 25.1519C227.73 26.888 228.508 33.471 227.242 36.5455C218.29 43.6892 200.277 63.0766 199.843 83.4766C199.3 108.977 203.912 109.791 196.045 127.695C188.178 145.599 183.295 188.732 175.428 188.19C169.134 187.756 161.593 191.626 158.609 193.615C155.787 192.313 153.997 184.211 153.454 180.323C151.067 184.88 153.364 191.626 154.811 194.429C149.602 194.429 147.758 196.599 147.486 197.684C132.024 165.131 150.795 134.786 161.05 123.354C177.598 104.908 178.412 81.5776 177.598 60.4179C176.784 39.2583 197.944 22.9816 214.492 25.1519Z" fill="#DE5F38"/>
</mask>
<g mask="url(#mask0)">
<path d="M168.463 135.096C161.953 151.915 168.192 189.894 168.463 191.251C172.261 186.458 180.074 176.765 180.942 176.33C181.81 175.896 199.389 139.075 208.07 120.719C218.469 92.5962 236.825 35.5919 227.059 32.5535C214.852 28.7557 194.235 40.9631 185.282 66.4632C178.121 86.8633 190.075 102.272 196.947 107.426C199.118 112.635 194.415 119.634 192.607 120.719C180.942 116.921 174.391 119.781 168.463 135.096Z" fill="#CA512C"/>
</g>
<path d="M199.572 124.169C210.965 118.744 209.609 110.334 210.152 109.792C219.646 109.972 236.845 111.365 229.684 115.488C222.522 119.612 225.072 125.526 227.242 127.967C228.237 129.504 228.436 133.772 216.934 136.377C205.431 138.981 200.205 129.143 199.572 124.169Z" fill="#FB8D7E"/>
<path d="M167.832 154.279C167.561 144.242 170.003 135.29 177.598 127.694C179.62 125.672 182.418 124.355 185.465 123.531C191.578 121.878 198.694 122.208 202.556 122.811L215.035 131.221L218.29 135.29H220.732L223.987 132.848L228.87 126.338C232.668 126.971 240.969 129.159 243.79 132.848C246.611 136.538 263.412 163.322 271.46 176.253L259.795 192.529L240.263 149.396C244.423 159.072 251.494 180.647 246.503 189.545C241.511 198.443 242.615 216.04 243.79 223.726L177.598 230.237C179.678 225.716 183.431 215.181 181.803 209.213L170.816 205.551C169.912 189.907 168.049 162.309 167.832 154.279Z" fill="#EDEDED"/>
<path d="M288.166 370.023L297.915 336.432L282.386 336.279L276.633 368.469C270.568 372.222 265.75 382.537 268.293 385.757V385.757C270.439 387.565 272.941 388.903 275.638 389.683L294.878 395.251C300.327 397.107 307.258 393.9 312.204 390.956L313.31 390.078C313.861 389.75 314.652 389.141 314.655 388.5C314.679 383.492 311.781 381.074 303.247 380.227C295.97 379.505 290.161 373.124 288.166 370.023Z" fill="#FFAD95"/>
<mask id="mask1" mask-type="alpha" maskUnits="userSpaceOnUse" x="254" y="329" width="80" height="80">
<path d="M288.166 370.023L297.915 336.432L282.386 336.279L276.633 368.469C270.568 372.222 265.751 382.537 268.293 385.757V385.757C270.439 387.565 272.941 388.903 275.638 389.683L294.878 395.251C300.327 397.107 307.258 393.9 312.204 390.956L313.31 390.078C313.861 389.75 314.652 389.141 314.655 388.5C314.679 383.492 311.781 381.074 303.247 380.227C295.97 379.505 290.161 373.124 288.166 370.023Z" fill="#FFAD95"/>
</mask>
<g mask="url(#mask1)">
<path opacity="0.6" d="M284.724 375.124L282.897 369.721L289.489 369.398L298.173 386.253L293.736 386.827L289.462 374.311L284.724 375.124Z" fill="#FF867B"/>
<path d="M303.541 385.874C307.74 383.441 302.641 379.967 299.567 378.534L314.359 377.62L318.445 384.799L322.177 395.568L282.128 399.319C277.408 395.214 261.859 384.295 261.782 383.857C261.686 383.31 266.475 374.068 271.255 377.176C273.587 378.692 280.081 381.524 286.731 383.673L293.248 372.295L297.499 375.652L290.689 384.86C296.259 386.388 301.364 387.136 303.541 385.874Z" fill="#3146CC"/>
</g>
<path d="M310.253 232.409C301.387 216.355 252.38 219.671 228.327 225.548L210.152 219.58L202.013 230.431L222.088 256.01L281.315 258.256L272.003 366.612L294.519 368.861C304.647 326.18 320.29 250.584 310.253 232.409Z" fill="#DCEBF1"/>
<path d="M314.904 387.967L299.946 344.081L282.969 355.723L301.2 395.049C297.469 403.736 300.158 416.665 305.367 418.228V418.228C308.128 418.228 310.872 417.799 313.502 416.957L336.359 409.634C342.1 407.966 346.688 405.578 352.321 402.664C355.57 400.984 358.425 398.622 360.642 395.713V395.713C361.229 394.941 361.294 393.892 360.804 393.055C359.763 391.278 358.047 388.365 357.715 387.886C353.933 382.43 348.948 382.009 339.037 387.579C330.588 392.327 319.428 389.816 314.904 387.967Z" fill="#FFAD95"/>
<mask id="mask2" mask-type="alpha" maskUnits="userSpaceOnUse" x="282" y="344" width="80" height="75">
<path d="M314.904 387.967L299.946 344.081L282.969 355.723L301.2 395.049C297.469 403.736 300.158 416.665 305.367 418.228V418.228C308.128 418.228 310.872 417.799 313.502 416.957L336.359 409.634C342.1 407.966 346.688 405.578 352.321 402.664C355.57 400.984 358.425 398.622 360.642 395.713V395.713C361.229 394.941 361.294 393.892 360.804 393.055C359.763 391.278 358.047 388.365 357.715 387.886C353.933 382.43 348.948 382.009 339.037 387.579C330.588 392.327 319.428 389.816 314.904 387.967Z" fill="#FFAD95"/>
</mask>
<g mask="url(#mask2)">
<path d="M343.651 393.486C346.36 387.652 338.182 387.756 333.755 388.538L349.12 376.298L359.016 380.986L373.006 392.81L322.295 420.311C314.048 419.443 297.449 417.603 297.033 417.186C296.512 416.665 294.428 408.852 301.981 408.592C309.533 408.331 340.265 400.778 343.651 393.486Z" fill="#3146CC"/>
<path d="M330.871 387.58C333.909 389.317 333.403 397.165 332.77 400.873C329.786 404.309 324.36 409.553 326.53 403.043C328.7 396.532 324.902 390.925 322.732 388.935C324.179 387.76 327.832 385.844 330.871 387.58Z" fill="#3146CC"/>
</g>
<path d="M186.822 267.674C170.545 262.683 174.614 238.828 178.684 227.525C198.125 225.355 241.186 222.859 257.896 230.238C274.607 237.617 297.593 322.653 306.998 364.249L284.21 370.76L234.295 264.962C225.253 267.946 203.098 272.666 186.822 267.674Z" fill="#E9F3F8"/>
<mask id="mask3" mask-type="alpha" maskUnits="userSpaceOnUse" x="175" y="225" width="132" height="146">
<path d="M186.822 267.674C170.545 262.683 174.614 238.828 178.684 227.525C198.125 225.355 241.186 222.859 257.896 230.238C274.607 237.617 297.593 322.653 306.998 364.249L284.21 370.76L234.295 264.962C225.253 267.946 203.098 272.666 186.822 267.674Z" fill="#E9F3F8"/>
</mask>
<g mask="url(#mask3)">
<path d="M291.264 369.946C277.519 330.429 245.96 255.303 234.024 250.312C222.088 245.32 182.481 265.232 173.529 250.312" stroke="#C4DAE4" stroke-width="2"/>
</g>
<mask id="mask4" mask-type="alpha" maskUnits="userSpaceOnUse" x="167" y="122" width="105" height="109">
<path d="M167.832 154.279C167.561 144.242 170.003 135.29 177.598 127.694C179.62 125.672 182.418 124.355 185.465 123.531C191.578 121.878 198.694 122.208 202.556 122.811L215.035 131.221L218.29 135.29H220.732L223.987 132.848L228.87 126.338C232.668 126.971 240.969 129.159 243.79 132.848C246.611 136.538 263.412 163.322 271.46 176.253L259.795 192.529L240.263 149.396C244.423 159.072 251.494 180.647 246.503 189.545C241.511 198.443 242.615 216.04 243.79 223.726L177.598 230.237C179.678 225.716 183.431 215.181 181.803 209.213L170.816 205.551C169.912 189.907 168.049 162.309 167.832 154.279Z" fill="#EDEDED"/>
</mask>
<g mask="url(#mask4)">
<path d="M192.518 190.902C194.255 171.587 188.359 137.822 185.194 123.354L200.928 111.96L241.891 123.354L253.013 183.578C253.104 198.498 253.23 228.61 253.013 229.695C252.796 230.78 204.816 235.934 180.854 238.376L175.428 216.131L192.518 190.902Z" fill="#3146CC"/>
<mask id="mask5" mask-type="alpha" maskUnits="userSpaceOnUse" x="175" y="111" width="79" height="128">
<path d="M192.518 190.902C194.255 171.587 188.359 137.822 185.194 123.354L200.928 111.96L241.891 123.354L253.013 183.578C253.104 198.498 253.23 228.61 253.013 229.695C252.796 230.78 204.816 235.934 180.854 238.376L175.428 216.131L192.518 190.902Z" fill="#3D58FF"/>
</mask>
<g mask="url(#mask5)">
<path d="M203.098 154.008L189.534 169.471V191.716L203.098 205.551L209.609 193.344L219.646 205.551L231.582 193.344L242.705 206.636L246.231 197.955L241.348 157.264L228.598 165.945L219.646 154.008L209.609 164.046L203.098 154.008Z" fill="#3D58FF"/>
<path d="M177.87 184.391L198.216 241.088M182.753 134.205L219.104 239.189M192.519 116.029L240.806 239.189M216.662 128.779C218.616 131.384 239.359 187.375 249.487 215.046M163.492 166.216C165.445 163.611 198.668 133.301 215.035 118.471M159.694 221.014C160.996 219.278 213.407 160.79 239.45 131.763M187.636 237.29L255.184 156.992M215.035 244.615L255.184 186.561" stroke="white" stroke-width="1.5"/>
</g>
</g>
<path d="M177.87 217.217C170.274 214.613 169.822 203.292 170.545 197.956L178.955 196.6C181.758 204.558 185.465 219.821 177.87 217.217Z" fill="#FFA791"/>
<path d="M198.216 121.456L202.827 116.573C206.625 120.099 215.686 128.943 219.375 135.02L219.647 138.004L216.662 138.546C216.572 136.67 216.011 132.632 214.492 131.493L211.237 129.052L203.912 138.546L198.216 121.456Z" fill="#F7F7F7"/>
<path d="M225.072 121.185L231.311 125.525V138.818L225.614 133.392C224.746 132.524 220.731 136.014 219.104 138.275L218.561 136.647C220.948 133.175 223.354 131.945 224.258 131.764L225.072 121.185Z" fill="#F6F6F6"/>
<path d="M190.916 79.9907C193.183 75.0041 198.158 77.9129 200.362 79.9907L202.775 97.6074C204.195 98.3349 203.602 98.4502 202.881 98.3787L202.775 97.6074C202.13 97.2769 201.07 96.8201 199.417 96.1971C192.805 93.7038 188.082 86.224 190.916 79.9907Z" fill="#FF9D8A"/>
<path d="M253.014 65.8436C250.192 51.7371 239.902 39.6201 234.296 38.7158L201.471 58.2478C199.934 61.7744 195.612 72.1915 201.471 95.4128C208.796 124.44 236.194 116.844 241.891 112.232C247.588 107.62 256.54 83.4766 253.014 65.8436Z" fill="#FFA791"/>
<mask id="mask6" mask-type="alpha" maskUnits="userSpaceOnUse" x="198" y="38" width="56" height="79">
<path d="M253.014 65.8436C250.192 51.7371 239.902 39.6201 234.296 38.7158L201.471 58.2478C199.934 61.7744 195.612 72.1915 201.471 95.4128C208.796 124.44 236.194 116.844 241.891 112.232C247.588 107.62 256.54 83.4766 253.014 65.8436Z" fill="#FFA791"/>
</mask>
<g mask="url(#mask6)">
<path d="M239.45 110.876C237.714 111.31 229.141 115.036 225.072 116.844L228.328 119.828L243.519 114.131L254.099 97.0408L247.588 96.7695C245.599 101.291 241.186 110.442 239.45 110.876Z" fill="#FF867B"/>
<g filter="url(#filter0_f)">
<circle cx="204.726" cy="96.2269" r="9.76599" fill="#FF6363" fill-opacity="0.8"/>
</g>
<g filter="url(#filter1_f)">
<circle cx="252.471" cy="98.3969" r="9.76599" fill="#FF6363" fill-opacity="0.8"/>
</g>
<path d="M212.322 88.631C212.322 89.2303 211.836 89.7161 211.237 89.7161C210.638 89.7161 210.152 89.2303 210.152 88.631C210.152 88.0317 210.638 87.5459 211.237 87.5459C211.836 87.5459 212.322 88.0317 212.322 88.631Z" fill="#F26E5F"/>
<path d="M208.524 92.4289C208.524 93.0282 208.038 93.514 207.439 93.514C206.84 93.514 206.354 93.0282 206.354 92.4289C206.354 91.8296 206.84 91.3438 207.439 91.3438C208.038 91.3438 208.524 91.8296 208.524 92.4289Z" fill="#F26E5F"/>
<path d="M214.492 92.9714C214.492 93.5707 214.007 94.0566 213.407 94.0566C212.808 94.0566 212.322 93.5707 212.322 92.9714C212.322 92.3722 212.808 91.8863 213.407 91.8863C214.007 91.8863 214.492 92.3722 214.492 92.9714Z" fill="#F26E5F"/>
<path d="M247.046 92.4289C247.046 93.0282 246.56 93.514 245.961 93.514C245.361 93.514 244.875 93.0282 244.875 92.4289C244.875 91.8296 245.361 91.3438 245.961 91.3438C246.56 91.3438 247.046 91.8296 247.046 92.4289Z" fill="#F26E5F"/>
<path d="M243.248 96.2268C243.248 96.8261 242.762 97.3119 242.163 97.3119C241.563 97.3119 241.078 96.8261 241.078 96.2268C241.078 95.6275 241.563 95.1417 242.163 95.1417C242.762 95.1417 243.248 95.6275 243.248 96.2268Z" fill="#F26E5F"/>
<path d="M249.216 96.7693C249.216 97.3686 248.73 97.8544 248.131 97.8544C247.531 97.8544 247.046 97.3686 247.046 96.7693C247.046 96.17 247.531 95.6842 248.131 95.6842C248.73 95.6842 249.216 96.17 249.216 96.7693Z" fill="#F26E5F"/>
</g>
<path d="M234.024 84.2905C232.849 86.1895 231.42 90.7469 235.11 93.7852C238.799 96.8235 234.476 99.2108 231.854 100.025" stroke="#FF7465" stroke-width="2" stroke-linecap="round"/>
<path d="M214.492 76.1524C217.476 76.6949 221.817 76.6949 225.072 72.3545M240.264 75.3385C241.077 77.78 242.162 81.0354 246.503 81.8492" stroke="#3F3333" stroke-width="2.5" stroke-linecap="round"/>
<ellipse cx="221.064" cy="84.3757" rx="2.64409" ry="3.97152" transform="rotate(2.37848 221.064 84.3757)" fill="#3F3333"/>
<ellipse cx="239.189" cy="88.1316" rx="2.34895" ry="3.5282" transform="rotate(16.5015 239.189 88.1316)" fill="#3F3333"/>
<path d="M221.003 104.258C223.535 102.811 229.033 101.111 230.769 105.885" stroke="#3F3333" stroke-width="2.5" stroke-linecap="round"/>
<path d="M246.775 66.6571C248.728 52.3336 236.918 50.3804 230.769 51.1943C228.816 59.4413 208.615 73.0773 198.758 78.8644C190.512 74.0899 189.716 82.1197 190.349 86.7314C192.736 93.6761 199.12 96.2266 202.013 96.7692C203.75 103.931 208.163 109.247 210.152 110.875C177.87 104.093 186.506 54.2357 203.099 41.9711C215.577 32.7473 230.136 31.2101 233.753 34.1037C241.349 33.8325 254.478 34.5921 261.423 49.5666C270.104 68.2847 254.308 75.9312 267.12 94.3274C277.7 109.519 265.492 118.29 258.439 122.54L235.923 123.897C251.929 120.641 254.913 104.636 248.945 100.296C242.977 95.9551 244.333 84.5614 246.775 66.6571Z" fill="#EE6B43"/>
<path d="M227.513 123.625C226.88 121.816 227.025 117.114 229.412 116.029C232.396 114.673 240.263 113.588 242.162 109.79C244.061 105.992 246.774 97.8534 248.402 98.6673C248.78 98.8566 248.985 99.2186 249.071 99.668C248.953 98.9224 249.048 97.5826 250.301 97.5826C250.754 97.5826 251.023 97.911 251.17 98.3964C251.513 97.7636 252.417 96.7148 253.285 97.5826C254.37 98.6673 254.912 113.317 240.263 121.997C258.168 142.253 286.272 176.579 283.668 188.732C280.412 203.923 262.779 205.551 258.71 197.684C257.505 195.355 240.987 151.838 227.513 123.625Z" fill="#FFA791"/>
<path d="M228.928 131.635C229.404 129.335 231.416 127.676 233.764 127.648L290.224 126.964C293.578 126.924 296.02 130.132 295.087 133.354L277.931 192.628C277.312 194.766 275.354 196.237 273.128 196.237L221.716 196.237C218.548 196.237 216.178 193.328 216.82 190.225L228.928 131.635Z" fill="#373232"/>
<path d="M215.035 168.928C215.306 165.13 217.617 154.205 223.987 155.365C226.971 155.908 223.851 158.685 222.359 162.418C220.32 167.519 237.686 159.64 241.484 160.725C244.522 161.594 242.75 162.715 241.484 163.167C242.75 162.896 244.333 162.689 244.604 163.503C244.849 164.239 244.479 165.741 240.118 167.573C242.191 166.758 244.67 166.032 245.146 167.029C245.815 168.43 242.969 169.53 240.116 170.773C241.842 170.043 242.717 170.663 243.247 171.37C244.061 172.455 228.056 184.391 219.646 180.864C212.864 191.173 202.746 210.423 186.686 216.066C166.611 223.119 172.309 200.19 177.598 196.87C181.261 194.571 204.003 178.061 215.035 168.928Z" fill="#FFA791"/>
<circle cx="258.167" cy="162.148" r="4.61172" fill="#494141"/>
<circle cx="137.809" cy="32.5533" r="32.5533" fill="#E8EFFF"/>
<mask id="mask7" mask-type="alpha" maskUnits="userSpaceOnUse" x="105" y="0" width="66" height="66">
<circle cx="137.809" cy="32.5533" r="32.5533" fill="#E8EFFF"/>
</mask>
<g mask="url(#mask7)">
<path d="M114.75 37.7072C113.014 16.005 126.687 3.5262 133.74 -0.000405312L110.953 -9.49512L96.575 23.3295L108.511 72.702L162.224 70.803C164.213 64.4732 166.727 52.6817 160.868 56.154C153.543 60.4945 116.921 64.8349 114.75 37.7072Z" fill="#E4EBFC"/>
</g>
<path d="M138.788 50.524L132.659 44.4212L139.345 39.6533L149.745 50.9054L138.788 50.524Z" fill="#3146CC"/>
<path d="M138.87 14.6494L120.99 32.6954L126.52 38.2197L149.745 14.6494H138.87Z" fill="#3D58FF"/>
<path d="M138.87 31.2223L129.285 40.9819L134.63 46.322L149.745 31.2223H138.87Z" fill="#3D58FF"/>
<circle cx="361.07" cy="196.676" r="33.3671" fill="#E8EFFF"/>
<mask id="mask8" mask-type="alpha" maskUnits="userSpaceOnUse" x="327" y="163" width="68" height="68">
<circle cx="361.07" cy="196.676" r="33.3671" fill="#E8EFFF"/>
</mask>
<g mask="url(#mask8)">
<path d="M337.435 201.959C335.655 179.714 349.67 166.924 356.899 163.309L333.542 153.577L318.805 187.222L331.04 237.829L386.096 235.882C388.135 229.394 390.711 217.308 384.705 220.867C377.198 225.316 339.66 229.765 337.435 201.959Z" fill="#E4EBFC"/>
</g>
<path d="M343.471 201.88L370.409 179.227L371.634 187.492C364.083 193.411 348.675 205.431 347.45 206.166C345.92 207.084 345.308 205.86 343.777 204.329C342.552 203.104 343.063 202.186 343.471 201.88Z" fill="#3146CC"/>
<path d="M343.777 192.39L370.103 215.043L371.328 205.859C363.879 200.349 348.675 189.084 347.45 188.105C345.92 186.88 345.001 188.411 343.777 189.941C342.797 191.166 343.369 192.084 343.777 192.39Z" fill="#6479FD"/>
<path d="M370.41 179.227L379.593 183.819V209.839L370.104 215.043L370.41 179.227Z" fill="#3D58FF"/>
<circle cx="33.0959" cy="130.214" r="33.0959" fill="#E8EFFF"/>
<mask id="mask9" mask-type="alpha" maskUnits="userSpaceOnUse" x="0" y="97" width="67" height="67">
<circle cx="33.0959" cy="130.214" r="33.0959" fill="#E8EFFF"/>
</mask>
<g mask="url(#mask9)">
<path d="M9.65299 135.453C7.88788 113.389 21.7881 100.703 28.9589 97.1173L5.7919 87.4644L-8.82544 120.836L3.30971 171.031L57.9179 169.101C59.9404 162.666 62.4961 150.677 56.5389 154.208C49.0923 158.62 11.8594 163.033 9.65299 135.453Z" fill="#E4EBFC"/>
</g>
<rect x="21.303" y="113.094" width="24.3464" height="12.934" rx="6.46701" fill="#3D58FF"/>
<path d="M21.303 132.115C21.303 128.754 24.028 126.029 27.3896 126.029H33.4762V138.202H27.3896C24.028 138.202 21.303 135.477 21.303 132.115V132.115Z" fill="#3146CC"/>
<path d="M21.303 144.669C21.303 141.098 24.1984 138.202 27.77 138.202H33.4762V145.05C33.4762 148.411 30.7511 151.136 27.3896 151.136V151.136C24.028 151.136 21.303 148.411 21.303 145.05V144.669Z" fill="#4D62E2"/>
<circle cx="39.5627" cy="132.115" r="6.08659" fill="#3D58FF"/>
<defs>
<filter id="filter0_f" x="164.96" y="56.4609" width="79.532" height="79.532" filterUnits="userSpaceOnUse" color-interpolation-filters="sRGB">
<feFlood flood-opacity="0" result="BackgroundImageFix"/>
<feBlend mode="normal" in="SourceGraphic" in2="BackgroundImageFix" result="shape"/>
<feGaussianBlur stdDeviation="15" result="effect1_foregroundBlur"/>
</filter>
<filter id="filter1_f" x="212.705" y="58.6309" width="79.532" height="79.532" filterUnits="userSpaceOnUse" color-interpolation-filters="sRGB">
<feFlood flood-opacity="0" result="BackgroundImageFix"/>
<feBlend mode="normal" in="SourceGraphic" in2="BackgroundImageFix" result="shape"/>
<feGaussianBlur stdDeviation="15" result="effect1_foregroundBlur"/>
</filter>
<linearGradient id="paint0_linear" x1="217.611" y1="237.237" x2="180.512" y2="128.503" gradientUnits="userSpaceOnUse">
<stop stop-color="#FBA059"/>
<stop offset="1" stop-color="#FFD58B"/>
</linearGradient>
</defs>
</svg>
